
<svg width="122" height="30" viewBox="0 0 122 30" xmlns="http://www.w3.org/2000/svg"><defs><linearGradient x1="14.707%" y1="85.232%" x2="85.28%" y2="14.659%" id="a"><stop stop-color="#A91C1A" offset="0%"/><stop stop-color="#E53C33" offset="34%"/><stop stop-color="#E53C33" offset="67%"/><stop stop-color="#EA544D" offset="98%"/></linearGradient></defs><g fill="none" fill-rule="evenodd"><path fill="#FFF" fill-rule="nonzero" d="M.56 13.46h48.7v16.164H.56z"/><path d="M49.82 29.81H0V13.273h49.82V29.81zM9.77 23.267c-.33.21-.716.315-1.108.3-.547.028-1.08-.166-1.48-.536-.388-.383-.594-.91-.567-1.45-.028-.543.16-1.073.523-1.478.334-.37.826-.555 1.483-.555.393 0 .776.116 1.102.332.198.13.374.29.523.473l2.793-1.905c-.365-.523-.806-.99-1.31-1.383-.812-.622-1.77-.935-3.09-.943-1.706.02-3.048.545-4.028 1.572-.98 1.027-1.487 2.317-1.522 3.87.012 1.63.52 2.92 1.536 3.895 1.015.975 2.313 1.48 3.957 1.505 1.29-.025 2.362-.37 3.215-1.048.458-.356.865-.77 1.21-1.235L10.25 22.75c-.132.2-.298.375-.49.52l.01-.002zm10.65-6.873h-3.403c-.02 0-.027.052-.027.128v9.974c0 .07 0 .11.027.125.04.007.083.007.124 0h3.29c.086 0 .132 0 .145-.025.014-.026 0-.043 0-.102V16.53c.016-.102-.04-.147-.155-.137v.002zm13.945.054c0-.018-.057-.026-.143-.026h-2.83c-.07 0-.11 0-.12.018-.012.052-.017.107-.012.16V20.5c-.47-.337-2.58-1.77-6.328-4.302-.06-.05-.1-.066-.13-.043-.03.024-.033.05-.033.13-.044 3.478-.044 6.757 0 10.228-.013.086.042.134.162.152h2.803c.08 0 .122-.016.132-.035.016-.03.022-.067.017-.1v-3.917c.42.32 2.524 1.75 6.316 4.286.09.042.144.057.163.045.022-.062.03-.128.026-.194.044-3.938.044-7.188 0-10.13 0-.05-.004-.103-.015-.153l-.01-.018zm12.163 7.702c-.05-.015-.103-.02-.155-.016h-4.268V22.89h4.054c.13 0 .195-.057.195-.21v-2.284c.005-.065-.002-.13-.02-.195-.02-.02-.074-.034-.17-.034h-4.06v-1.303h4.13c.126.018.197-.062.183-.216v-2c.003-.066-.004-.132-.02-.196-.064-.01-.13-.015-.196-.012H38.76c-.036-.002-.07.003-.105.013-.024.013-.03.058-.03.144v9.83c-.008.063.007.126.042.18.04.033.09.05.143.043h7.56c.055.006.11-.01.154-.044.012-.06.017-.118.014-.178V24.33c.004-.066 0-.132-.014-.196l.004.018z" fill="#E53C33" fill-rule="nonzero"/><path d="M23.152 7.68h-4.24V6.416h4c.13.014.197-.06.183-.195V3.978c0-.06-.004-.12-.012-.18-.023-.027-.08-.04-.17-.04H18.91V2.466h4.112c.122.012.18-.06.17-.208V.228c.004-.065 0-.13-.012-.195-.052-.012-.105-.017-.158-.015h-7.438c-.048-.004-.095.002-.14.015-.022.01-.028.06-.028.138v9.833c-.006.06.01.122.044.172.036.035.087.052.137.046h7.555c.055.006.11-.01.152-.045.015-.056.02-.114.015-.172v-2.12c.006-.065 0-.13-.016-.194-.05-.013-.1-.018-.152-.015M46.296 7.68H42.06V6.416h3.998c.128.014.197-.06.185-.195V3.978c.003-.06-.003-.122-.018-.18-.02-.027-.074-.04-.167-.04H42.06V2.466h4.112c.122.012.185-.06.175-.208V.228c.002-.065-.003-.13-.015-.195-.053-.012-.106-.017-.16-.015h-7.44c-.047-.003-.095.003-.14.015-.018.01-.03.06-.03.138v9.833c-.005.06.01.12.044.172.038.034.09.05.14.046h7.55c.056.01.113-.008.156-.045.016-.056.024-.114.023-.172v-2.12c.004-.065-.002-.13-.017-.194-.05-.014-.104-.018-.156-.015M12.165 0h-8.85c-.087 0-.127.05-.115.148v2.56c-.012.087.024.123.102.113h2.72v7.275c0 .07 0 .11.028.12.038.015.08.02.12.016h3.243c.075 0 .122-.01.13-.03.016-.032.022-.068.018-.103V2.82h2.63c.07 0 .103-.026.103-.112V.148c0-.1-.04-.148-.122-.148M34.556 7.42h-3.652V.15c.02-.103-.034-.146-.148-.138h-3.36c-.017.01-.03.056-.03.13v9.935c0 .067.013.11.03.117.018.008.052.018.124.018h7.058c.078 0 .126 0 .133-.03.01-.03.02-.042.02-.103V7.575c0-.103-.06-.158-.17-.158M75.08 22.86V6.914h6.052c.707-.013 1.41.113 2.07.37.574.227 1.094.574 1.523 1.017.412.432.733.94.944 1.497.435 1.15.435 2.416 0 3.565-.214.557-.54 1.065-.957 1.494-.432.44-.95.785-1.524 1.017-.656.256-1.356.38-2.06.364h-4.674v6.623H75.08zm5.9-7.87c.495.007.987-.078 1.45-.25.418-.158.8-.398 1.123-.706.314-.305.56-.672.724-1.078.337-.89.337-1.87 0-2.762-.16-.41-.407-.78-.724-1.09-.323-.307-.705-.547-1.123-.704-.463-.172-.955-.258-1.45-.25h-4.524v6.84h4.524zM104.3 6.914h-1.716L96.487 21.65h-7.724V6.915h-1.377v15.974H97.58l1.59-3.924h8.54l1.597 3.93h1.597L104.3 6.914zM99.633 17.72l3.798-9.35 3.822 9.35h-7.62zM114.228 22.895v-6.83l-6.412-9.153h1.67l5.43 7.86 5.433-7.86h1.67l-6.413 9.154v6.83" fill="#FFF" fill-rule="nonzero"/><path d="M63.56 6.914c4.453 0 8.064 3.576 8.064 7.987 0 4.412-3.61 7.988-8.064 7.988-4.454 0-8.065-3.576-8.065-7.987 0-4.41 3.61-7.986 8.065-7.986z" fill="url(#a)"/><path d="M61.506 11.262c-.478 0-.806.39-.806 1.036v5.19c0 .652.33 1.032.808 1.034h.012c.228-.008.45-.075.645-.195l4.524-2.593c.805-.46.805-1.215 0-1.677l-4.525-2.595c-.194-.118-.415-.185-.643-.194l-.016-.006z" fill="#FFF" fill-rule="nonzero"/></g></svg>
